<?xml version="1.0" encoding="UTF-8"?>
<svg version="1.1" xmlns="http://www.w3.org/2000/svg" width="701" height="214">
<path d="M0 0 C231.33 0 462.66 0 701 0 C701 70.62 701 141.24 701 214 C469.67 214 238.34 214 0 214 C0 143.38 0 72.76 0 0 Z " fill="#131210" transform="translate(0,0)"/>
<path d="M0 0 C11.88 0 23.76 0 36 0 C41.61238223 12.34724092 41.61238223 12.34724092 43.125 16.6875 C43.44855469 17.60015625 43.77210938 18.5128125 44.10546875 19.453125 C44.54826172 20.71382812 44.54826172 20.71382812 45 22 C46.64403974 26.55807845 48.42613897 31.03641322 50.3125 35.5 C52.63325994 41.02229022 54.75475565 46.60260026 56.83911133 52.21679688 C58.47091367 56.60748486 60.17255836 60.96082374 61.93359375 65.30078125 C63.62323905 69.57750249 65.21543845 73.89087379 66.80664062 78.20507812 C68.4117321 82.52978841 70.15565477 86.76998225 72 91 C72.99 93.31 73.98 95.62 75 98 C75.33 65.66 75.66 33.32 76 0 C87.55 0 99.1 0 111 0 C111 63.36 111 126.72 111 192 C98.46 192 85.92 192 73 192 C72.01 187.545 72.01 187.545 71 183 C70.34 183 69.68 183 69 183 C68.74605469 182.14277344 68.49210938 181.28554687 68.23046875 180.40234375 C66.43485647 174.43714491 64.573251 168.68259595 62 163 C55 146.20564516 55 146.20564516 55 141 C54.34 141 53.68 141 53 141 C52.49487756 139.39743892 51.99608373 137.79288208 51.5 136.1875 C51.2215625 135.29417969 50.943125 134.40085938 50.65625 133.48046875 C50 131 50 131 50 128 C49.34 128 48.68 128 48 128 C47.7733667 127.3702124 47.5467334 126.7404248 47.31323242 126.09155273 C46.27348785 123.20608266 45.23051981 120.3217877 44.1875 117.4375 C43.83107422 116.44685547 43.47464844 115.45621094 43.10742188 114.43554688 C41.21628287 109.21322724 39.22617966 104.08751227 37 99 C36.21786709 97.00439179 35.44695946 95.00434662 34.6875 93 C33.277164 89.29356819 31.84585172 85.59975317 30.34375 81.9296875 C30.06829346 81.25421875 29.79283691 80.57875 29.5090332 79.8828125 C28.97020968 78.56593741 28.42721613 77.2507592 27.87963867 75.9375 C26.72714024 73.11363266 26 71.08411018 26 68 C25.34 68 24.68 68 24 68 C23.68546875 66.96101563 23.3709375 65.92203125 23.046875 64.8515625 C20.8718881 57.74125813 18.672471 50.74587214 15.69921875 43.91796875 C15 42 15 42 15 39 C14.34 39 13.68 39 13 39 C12.49487756 37.39743892 11.99608373 35.79288208 11.5 34.1875 C11.2215625 33.29417969 10.943125 32.40085938 10.65625 31.48046875 C10 29 10 29 10 26 C9.34 26 8.68 26 8 26 C6.65613444 22.4205283 5.32676186 18.83584287 4 15.25 C3.6184375 14.23421875 3.236875 13.2184375 2.84375 12.171875 C2.4828125 11.1921875 2.121875 10.2125 1.75 9.203125 C1.24726562 7.85202637 1.24726562 7.85202637 0.734375 6.47363281 C0 4 0 4 0 0 Z " fill="#FAE289" transform="translate(580,9)"/>
<path d="M0 0 C1.0101416 0.00249756 2.0202832 0.00499512 3.06103516 0.00756836 C4.34800293 0.01667236 5.6349707 0.02577637 6.9609375 0.03515625 C13.0865625 0.06609375 13.0865625 0.06609375 19.3359375 0.09765625 C19.3359375 11.31765625 19.3359375 22.53765625 19.3359375 34.09765625 C15.7059375 34.42765625 12.0759375 34.75765625 8.3359375 35.09765625 C5.47260607 36.26213234 5.47260607 36.26213234 4.3359375 39.09765625 C3.77817779 42.73301691 3.80036945 46.31295349 3.83422852 49.98486328 C3.82882553 51.09414185 3.82342255 52.20342041 3.81785583 53.34631348 C3.80533871 57.01630248 3.82187823 60.68551174 3.83984375 64.35546875 C3.83968885 66.90086915 3.83820145 69.4462698 3.83543396 71.9916687 C3.83404869 77.3264294 3.84619853 82.66091406 3.86938477 87.99560547 C3.8960212 94.16691829 3.89773263 100.33785529 3.8859964 106.50920594 C3.87522728 112.44447876 3.88149759 118.37963666 3.89555168 124.31490707 C3.90007977 126.84197467 3.90039121 129.36905334 3.89648628 131.89612198 C3.89358912 135.42072796 3.91000894 138.94471086 3.93188477 142.46923828 C3.92513229 144.04800247 3.92513229 144.04800247 3.91824341 145.65866089 C3.92814804 146.61484314 3.93805267 147.57102539 3.94825745 148.55618286 C3.95190229 149.80663737 3.95190229 149.80663737 3.95562077 151.08235359 C4.08112529 151.74740347 4.20662981 152.41245335 4.3359375 153.09765625 C5.3259375 153.75765625 6.3159375 154.41765625 7.3359375 155.09765625 C7.3359375 155.75765625 7.3359375 156.41765625 7.3359375 157.09765625 C11.2959375 157.09765625 15.2559375 157.09765625 19.3359375 157.09765625 C19.3359375 168.64765625 19.3359375 180.19765625 19.3359375 192.09765625 C15.3553125 192.22140625 11.3746875 192.34515625 7.2734375 192.47265625 C5.41126587 192.55459229 5.41126587 192.55459229 3.51147461 192.63818359 C-5.6559842 192.77588426 -5.6559842 192.77588426 -9.7578125 189.3203125 C-10.75957741 188.2768138 -11.73338476 187.20502314 -12.6640625 186.09765625 C-13.30214844 185.40800781 -13.94023437 184.71835938 -14.59765625 184.0078125 C-15.09394531 183.39808594 -15.59023438 182.78835937 -16.1015625 182.16015625 C-19.06876416 178.66500655 -22.26049078 175.68273069 -25.76953125 172.73828125 C-26.39472656 172.196875 -27.01992188 171.65546875 -27.6640625 171.09765625 C-28.34988529 170.52159512 -29.03570808 169.94553398 -29.74231339 169.35201645 C-32.14995865 166.52766252 -32.20677442 165.06325516 -32.30657959 161.38726807 C-32.36685333 159.63883102 -32.36685333 159.63883102 -32.42834473 157.85507202 C-32.4516687 156.57935333 -32.47499268 155.30363464 -32.49902344 153.98925781 C-32.53720304 152.62857267 -32.57676883 151.26792583 -32.61761475 149.90731812 C-32.74308837 145.43477274 -32.82431771 140.96193459 -32.8984375 136.48828125 C-32.91162679 135.72371455 -32.92481607 134.95914785 -32.93840504 134.17141247 C-33.06170628 126.93758837 -33.16838369 119.70369215 -33.23608017 112.46912003 C-33.32322828 103.26740149 -33.48985378 94.07516772 -33.76983047 84.87723947 C-33.96062077 78.38348574 -34.05605008 71.89224204 -34.08486772 65.39577842 C-34.1044732 61.52950627 -34.16232045 57.67390245 -34.32384491 53.81073761 C-34.90274583 39.30208099 -34.87617991 27.19599898 -24.63526464 15.99613261 C-9.09847743 -0.04595191 -9.09847743 -0.04595191 0 0 Z " fill="#F8DF88" transform="translate(474.6640625,8.90234375)"/>
<path d="M0 0 C24.26805547 -2.02233796 24.26805547 -2.02233796 31.11328125 3.3515625 C35.19071863 7.2147801 38.64985252 11.50436106 42 16 C45.1320578 20.09904756 45.1320578 20.09904756 49.11358547 23.30870914 C51 25 51 25 51.50615788 27.57563686 C51.5089648 28.61483304 51.51177172 29.65402922 51.5146637 30.72471619 C51.52738815 31.91786942 51.54011261 33.11102264 51.55322266 34.34033203 C51.54669678 35.65106689 51.5401709 36.96180176 51.53344727 38.31225586 C51.5405038 39.70521459 51.54924771 41.09816565 51.55955505 42.49110413 C51.58209 46.27632354 51.57909985 50.06112565 51.57023358 53.84638667 C51.56512932 57.00504135 51.57241171 60.16361721 51.57970566 63.32226378 C51.59671793 70.77342473 51.59312586 78.22438096 51.57641602 85.67553711 C51.55949428 93.36525 51.5753265 101.05439527 51.6076389 108.74404615 C51.63432164 115.34373267 51.64161438 121.94324235 51.63312382 128.54297739 C51.62819053 132.48576454 51.63043134 136.42821012 51.65091133 140.37095451 C51.66924811 144.07873829 51.66333567 147.78570478 51.63871193 151.49344444 C51.63130494 153.50368384 51.64857527 155.51396658 51.66653442 157.5241394 C51.64755348 159.31809898 51.64755348 159.31809898 51.62818909 161.14830017 C51.62760278 162.18787337 51.62701647 163.22744658 51.62641239 164.298522 C50.77605072 167.96580791 49.05115173 168.92665519 46 171 C42.98980538 173.80853125 40.40364916 176.74241802 37.890625 179.98828125 C28.78236419 191.12736944 28.78236419 191.12736944 21.81054688 192.73583984 C14.34447613 193.40633649 7.57324413 192.65854297 0 192 C0 180.45 0 168.9 0 157 C3.96 156.67 7.92 156.34 12 156 C15.2546461 152.7453539 15.37530944 152.57762856 15.38768005 148.33827209 C15.402537 146.90193672 15.402537 146.90193672 15.41769409 145.43658447 C15.41319244 144.38767029 15.4086908 143.3387561 15.40405273 142.25805664 C15.41091599 141.15213669 15.41777924 140.04621674 15.42485046 138.90678406 C15.44319263 135.24111185 15.43927024 131.57586462 15.43359375 127.91015625 C15.43815201 125.36811686 15.44345651 122.8260787 15.44947815 120.28404236 C15.4584239 114.95175599 15.45620235 109.61962529 15.44604492 104.28735352 C15.43456483 98.12457038 15.44863551 91.96222248 15.4754414 85.79949671 C15.50026628 79.87011813 15.50277705 73.94087489 15.49632454 68.01144218 C15.49617088 65.48880731 15.50225212 62.96616423 15.51461601 60.44355965 C15.52945482 56.91915423 15.51890012 53.39571266 15.50170898 49.87133789 C15.51137695 48.82444794 15.52104492 47.77755798 15.53100586 46.69894409 C15.49105978 42.79791207 15.45197381 39.88015088 13.65614319 36.38304138 C9.86425113 34.19499225 9.86425113 34.19499225 0 34 C0 22.78 0 11.56 0 0 Z " fill="#F7DF89" transform="translate(506,9)"/>
<path d="M0 0 C11.55 0 23.1 0 35 0 C35 63.69 35 127.38 35 193 C23.45 193 11.9 193 0 193 C0 129.31 0 65.62 0 0 Z " fill="#F5DD87" transform="translate(14,8)"/>
<path d="M0 0 C0 11.22 0 22.44 0 34 C-3.96 34 -7.92 34 -12 34 C-12.66 35.32 -13.32 36.64 -14 38 C-14.99 38.495 -14.99 38.495 -16 39 C-15.98699026 39.83735609 -15.98699026 39.83735609 -15.97371769 40.69162846 C-15.76689109 54.34126459 -15.64561478 67.98942272 -15.61396885 81.64062595 C-15.59613237 88.24294197 -15.55087914 94.84261267 -15.44116211 101.4440918 C-15.33614705 107.82515534 -15.30551213 114.20278272 -15.32465935 120.5846386 C-15.31920621 123.00906384 -15.28774315 125.43358566 -15.22885323 127.85730171 C-14.74794203 148.81382059 -14.74794203 148.81382059 -22.27944088 156.86978817 C-24.8400201 159.26982786 -27.49635728 161.47887588 -30.28086662 163.6133709 C-33.16617609 165.94062143 -35.32960295 168.78313103 -37.60546875 171.6796875 C-39.36743334 173.34787806 -40.59572514 173.76335877 -43 174 C-45.5625 172.25 -45.5625 172.25 -48 170 C-48.53436298 169.57375147 -49.06872597 169.14750294 -49.61928177 168.70833778 C-51.57565692 166.28775007 -51.43827223 164.50700697 -51.5289917 161.41659546 C-51.56924469 160.25379059 -51.60949768 159.09098572 -51.65097046 157.89294434 C-51.67946075 156.61520142 -51.70795105 155.3374585 -51.73730469 154.02099609 C-51.7773918 152.66209215 -51.81842073 151.3032157 -51.86032104 149.94436646 C-52.22421831 137.46866385 -52.4020823 124.98541219 -52.54169846 112.50540733 C-52.64646947 103.30288539 -52.83254404 94.11009676 -53.13126826 84.91178071 C-53.33483086 78.41896865 -53.43891054 71.92875455 -53.47422338 65.432881 C-53.49793667 61.56658797 -53.56184767 57.71210679 -53.7349472 53.84937668 C-54.35402411 39.3786152 -54.11674521 27.02004736 -44.20932412 15.62391198 C-42.59383377 13.8776357 -40.93921369 12.18616074 -39.25097656 10.51025391 C-38.4541988 9.70682812 -38.4541988 9.70682812 -37.64132452 8.88717151 C-26.04558417 -2.45321927 -15.8135876 -2.16032617 0 0 Z " fill="#F9E088" transform="translate(249,9)"/>
<path d="M0 0 C4.00125 -0.103125 8.0025 -0.20625 12.125 -0.3125 C13.37555176 -0.35802002 14.62610352 -0.40354004 15.91455078 -0.45043945 C25.10475357 -0.56518743 25.10475357 -0.56518743 28.64453125 2.33203125 C31.15652561 5.17729186 33.60650837 8.05416415 36 11 C37.6459651 12.68711423 39.31237149 14.3545622 41 16 C42.2684375 17.299375 42.2684375 17.299375 43.5625 18.625 C45.81158214 20.99371237 45.81158214 20.99371237 48.11933613 22.28953171 C50 24 50 24 50.5117445 26.5828743 C50.51714906 27.62554836 50.52255362 28.66822243 50.52812195 29.74249268 C50.54373672 30.93972458 50.5593515 32.13695648 50.57543945 33.37046814 C50.57205566 34.68584061 50.56867188 36.00121307 50.56518555 37.35644531 C50.57551627 38.75439216 50.58750456 40.15232759 50.60102844 41.55024719 C50.63212318 45.35009413 50.63735145 49.14956217 50.63609672 52.94952106 C50.63692657 56.12281188 50.64916551 59.29602023 50.66104633 62.46928573 C50.68844189 69.95890567 50.6937438 77.44832882 50.6862793 84.93798828 C50.67904471 92.6584766 50.71241365 100.37805033 50.76533669 108.09834027 C50.80914935 114.729504 50.82583035 121.36037271 50.8213008 127.99167895 C50.81898032 131.95093464 50.827262 135.90945226 50.86237144 139.86856842 C50.8943847 143.59544842 50.89247591 147.32081917 50.86492729 151.04771996 C50.85836601 153.06101204 50.88629693 155.07432482 50.91537476 157.0874176 C50.84103836 162.91970185 50.76945571 167.00845924 46.69636536 171.42962646 C44.89170551 173.05416489 44.89170551 173.05416489 43 174 C39.81585739 173.60387474 38.2358138 172.60732118 36.01171875 170.33984375 C35.47337402 169.79690674 34.9350293 169.25396973 34.38037109 168.69458008 C33.5423999 167.82482544 33.5423999 167.82482544 32.6875 166.9375 C32.11080566 166.35057373 31.53411133 165.76364746 30.93994141 165.15893555 C27.26631915 161.39370564 23.71987694 157.54451432 20.3671875 153.48828125 C18.8737203 151.74429528 18.8737203 151.74429528 16 150 C15.62641239 148.02875614 15.62641239 148.02875614 15.62818909 145.56568909 C15.62143158 144.63330414 15.61467407 143.70091919 15.60771179 142.74028015 C15.61543106 141.71425186 15.62315033 140.68822357 15.63110352 139.63110352 C15.6254538 138.01392426 15.6254538 138.01392426 15.61968994 136.36407471 C15.61324137 134.01722141 15.6136025 131.67034201 15.61987495 129.32348824 C15.62894469 125.61317996 15.61880841 121.90338142 15.60325623 118.19309998 C15.56812685 108.97701407 15.56083313 99.76094199 15.56335449 90.5447998 C15.56521302 82.76272079 15.55141935 74.9809597 15.51487541 67.19895744 C15.50400319 63.53656034 15.51620933 59.87467652 15.52870178 56.21229553 C15.51980147 53.97428877 15.50972853 51.73628625 15.49829102 49.49829102 C15.51290627 47.96228493 15.51290627 47.96228493 15.52781677 46.39524841 C15.51823944 45.46004364 15.50866211 44.52483887 15.49879456 43.56129456 C15.49900384 42.7481054 15.49921312 41.93491625 15.49942875 41.097085 C15.09436934 38.40491238 15.09436934 38.40491238 11 36 C7.37 35.67 3.74 35.34 0 35 C0 23.45 0 11.9 0 0 Z " fill="#FBE289" transform="translate(261,9)"/>
<path d="M0 0 C11.55 0 23.1 0 35 0 C35 48.18 35 96.36 35 146 C23.45 146 11.9 146 0 146 C0 97.82 0 49.64 0 0 Z " fill="#F6DE88" transform="translate(333,9)"/>
<path d="M0 0 C0.33 0 0.66 0 1 0 C1 11.22 1 22.44 1 34 C2.98 33.505 2.98 33.505 5 33 C7.25 33.4375 7.25 33.4375 9 34 C9 34.66 9 35.32 9 36 C9.89203125 35.95359375 10.7840625 35.9071875 11.703125 35.859375 C12.87359375 35.82328125 14.0440625 35.7871875 15.25 35.75 C16.41015625 35.70359375 17.5703125 35.6571875 18.765625 35.609375 C22 36 22 36 24.17851257 37.34495544 C27.09038261 41.58936832 26.4845116 45.84787491 26.37817383 50.87133789 C26.37061066 51.97901016 26.36304749 53.08668243 26.35525513 54.22792053 C26.32525744 57.89331114 26.26644045 61.5576337 26.20703125 65.22265625 C26.17966976 67.76564369 26.15394985 70.30864928 26.12980652 72.85166931 C26.07517568 78.18235328 26.00806554 83.5126504 25.92944336 88.84301758 C25.82857503 95.68506589 25.75064234 102.52716672 25.6805315 109.36959171 C25.61377343 115.88320368 25.5357582 122.39667958 25.45703125 128.91015625 C25.43532836 130.78253306 25.43532836 130.78253306 25.41318703 132.69273567 C25.37039169 136.21460708 25.32078423 139.73631035 25.26879883 143.25805664 C25.25675919 144.30697083 25.24471954 145.35588501 25.23231506 146.43658447 C25.21674561 147.39414139 25.20117615 148.3516983 25.18513489 149.33827209 C25.17348706 150.17098664 25.16183924 151.00370119 25.14983845 151.86164951 C25 154 25 154 24 157 C19.97735636 159.23795291 16.3349633 159.23300794 11.80078125 159.1953125 C11.12452194 159.1924826 10.44826263 159.18965271 9.75151062 159.18673706 C7.60498838 159.17560659 5.45889438 159.15053224 3.3125 159.125 C1.85873006 159.11495948 0.40495348 159.10583551 -1.04882812 159.09765625 C-4.69934305 159.07521494 -8.3496195 159.03870398 -12 159 C-14.21081851 158.89459074 -14.21081851 158.89459074 -17 160 C-16.67 160.99 -16.34 161.98 -16 163 C-16.5775 162.79375 -17.155 162.5875 -17.75 162.375 C-20.51967567 161.91338739 -21.64561267 162.57055055 -24 164 C-23.4481437 160.13700588 -21.69346579 158.69346579 -19 156 C-17.3809993 152.61459231 -16.74918724 149.90457946 -16.74171448 146.16696167 C-16.73488647 145.22203857 -16.72805847 144.27711548 -16.72102356 143.30355835 C-16.72357651 142.27896515 -16.72612946 141.25437195 -16.72875977 140.19873047 C-16.72353302 139.11041931 -16.71830627 138.02210815 -16.71292114 136.90081787 C-16.70268929 134.54092728 -16.69690216 132.18101418 -16.69503975 129.82110214 C-16.69137921 126.08962175 -16.67466258 122.35840784 -16.65428162 118.62698364 C-16.60584946 109.36253518 -16.5741803 100.098044 -16.55297852 90.83349609 C-16.5350293 83.00033986 -16.50570575 75.16737355 -16.45893669 67.33432388 C-16.44725966 64.85833885 -16.44135611 62.38231979 -16.44125557 59.90630722 C-16.44106436 56.45149454 -16.42286066 52.99721128 -16.40063477 49.54248047 C-16.40521194 48.51383881 -16.40978912 47.48519714 -16.414505 46.42538452 C-16.40003326 45.01645935 -16.40003326 45.01645935 -16.38526917 43.57907104 C-16.38325784 42.762404 -16.38124651 41.94573696 -16.37917423 41.10432243 C-16 39 -16 39 -13 36 C-8.71 36 -4.42 36 0 36 C0 24.12 0 12.24 0 0 Z " fill="#101010" transform="translate(250,8)"/>
<path d="M0 0 C11.55 0 23.1 0 35 0 C35.11478737 7.88461708 35.21433637 15.7663361 35.2746582 23.65112305 C35.29697994 26.33338454 35.33176794 29.0150542 35.37719727 31.69702148 C35.43784525 35.55209255 35.46621127 39.4062577 35.48828125 43.26171875 C35.51408768 44.46084396 35.5398941 45.65996918 35.56648254 46.89543152 C35.56929982 55.25638422 35.56929982 55.25638422 32.61914062 59.10986328 C31.75482422 59.7336084 30.89050781 60.35735352 30 61 C28.35756478 63.04433617 26.75833445 65.09065361 25.1875 67.1875 C24.30545866 68.34954408 23.42263834 69.51099727 22.5390625 70.671875 C22.10754883 71.23970703 21.67603516 71.80753906 21.23144531 72.39257812 C18.90901081 75.42408264 16.50417495 78.38893971 14.109375 81.36328125 C11.653882 84.4326475 9.23352147 87.52843475 6.8125 90.625 C2.24637814 96.46477484 -2.43313927 102.20444694 -7.13867188 107.93212891 C-11.50593014 113.29182699 -15.60856654 118.81730118 -19.57421875 124.48022461 C-20.67007765 126.02064974 -21.82921339 127.51572408 -23 129 C-23.66 129 -24.32 129 -25 129 C-25.28124556 121.42440072 -25.47249037 113.85016762 -25.60424805 106.27050781 C-25.65922461 103.6980561 -25.73403633 101.12594265 -25.82983398 98.5546875 C-26.72955981 73.76651919 -26.72955981 73.76651919 -19.8359375 65.7109375 C-17.9585987 63.71220374 -16.01225387 61.87003337 -14 60 C-12.83098912 58.5727245 -11.68748853 57.12348633 -10.58984375 55.640625 C-10.13802734 55.063125 -9.68621094 54.485625 -9.22070312 53.890625 C-8.329143 52.75073078 -7.43859024 51.61004824 -6.54882812 50.46875 C-4.7772698 48.20696544 -3.03368643 46.03368643 -1 44 C-0.67043065 42.02239739 -0.67043065 42.02239739 -0.68115234 39.73388672 C-0.66128265 38.85312469 -0.64141296 37.97236267 -0.62094116 37.06491089 C-0.60938995 36.11278717 -0.59783875 35.16066345 -0.5859375 34.1796875 C-0.56657135 33.20589142 -0.5472052 32.23209534 -0.5272522 31.22879028 C-0.46735442 28.11094997 -0.42103029 24.99307294 -0.375 21.875 C-0.33682961 19.76430659 -0.29777844 17.65362892 -0.2578125 15.54296875 C-0.15998259 10.36205988 -0.08049481 5.18132359 0 0 Z " fill="#FBE289" transform="translate(85,8)"/>
<path d="M0 0 C0.66 0 1.32 0 2 0 C2.60967265 1.62579374 3.21931931 3.25159722 3.82885742 4.87744141 C4.36505156 6.3069636 4.90168127 7.73632249 5.4387207 9.16552734 C6.84556469 12.91137744 8.24550802 16.65948442 9.62890625 20.4140625 C10.02118408 21.47367188 10.02118408 21.47367188 10.42138672 22.5546875 C10.91922924 23.9000363 11.4144936 25.24634296 11.90673828 26.59375 C12.99867766 29.53611075 14.16905955 32.32987228 15.6015625 35.125 C16.9683838 37.93500134 17.64927997 40.31128601 18.1875 43.375 C18.34605469 44.24898437 18.50460937 45.12296875 18.66796875 46.0234375 C18.77753906 46.67570312 18.88710938 47.32796875 19 48 C19.66 48 20.32 48 21 48 C21.28198242 48.81154541 21.56396484 49.62309082 21.85449219 50.45922852 C22.91507124 53.5009015 23.9818532 56.54030941 25.05273438 59.57836914 C25.51287165 60.88773035 25.97060633 62.19793867 26.42578125 63.5090332 C27.0846434 65.40542919 27.75319436 67.29845002 28.421875 69.19140625 C28.81987305 70.32779541 29.21787109 71.46418457 29.62792969 72.63500977 C30.91636546 76.0806994 30.91636546 76.0806994 33.05737305 79.23608398 C35.2580571 83.05397078 35.48442006 86.15356676 35.45410156 90.58764648 C35.45468567 91.31043289 35.45526978 92.0332193 35.45587158 92.77790833 C35.45310742 95.14280957 35.42209761 97.50641553 35.390625 99.87109375 C35.3831566 101.52018038 35.3774665 103.16927593 35.37347412 104.81837463 C35.35826475 109.14058304 35.31902427 113.46224639 35.2746582 117.78424072 C35.2263744 122.97964974 35.20814905 128.17524189 35.18484497 133.37081146 C35.14616959 141.24758572 35.06948445 149.12316608 35 157 C23.45 157 11.9 157 0 157 C0 105.19 0 53.38 0 0 Z " fill="#F4DD87" transform="translate(579,44)"/>
<path d="M0 0 C11.22 0 22.44 0 34 0 C34 29.7 34 59.4 34 90 C22.78 90 11.56 90 0 90 C0 60.3 0 30.6 0 0 Z " fill="#F9E189" transform="translate(142,111)"/>
<path d="M0 0 C11.22 0 22.44 0 34 0 C34 29.7 34 59.4 34 90 C22.78 90 11.56 90 0 90 C0 60.3 0 30.6 0 0 Z " fill="#F9E189" transform="translate(142,9)"/>
<path d="M0 0 C1.90625 0.35546875 1.90625 0.35546875 4 1 C5.05771739 2.63064764 6.05273046 4.30280873 7 6 C8.97618481 8.05973892 11.02012174 10.01865686 13.11315918 11.95932007 C19.24487676 18.3922464 19.98538114 24.22659452 19.90637207 32.72036743 C19.86553566 34.34745455 19.82380797 35.9745195 19.78125 37.6015625 C19.7663025 39.29118147 19.75492735 40.98083546 19.74694824 42.67050171 C19.71661001 47.08711903 19.63821253 51.50158347 19.54931641 55.9173584 C19.45252009 61.23181166 19.41625841 66.54699069 19.36968994 71.86207581 C19.29248326 79.90954124 19.13908657 87.9522968 19 96 C7.45 96 -4.1 96 -16 96 C-16.03738281 91.34261719 -16.07476562 86.68523437 -16.11328125 81.88671875 C-16.14355346 78.93811385 -16.17469619 75.98956987 -16.20898438 73.04101562 C-16.26333799 68.35981279 -16.31444632 63.67873049 -16.34643555 58.99731445 C-16.37242461 55.22347912 -16.4127949 51.45004781 -16.46318626 47.67646217 C-16.47988494 46.23600091 -16.49138053 44.79546972 -16.49761391 43.35492516 C-16.50722148 41.33896226 -16.53696102 39.32312559 -16.56762695 37.30737305 C-16.57873001 36.15931686 -16.58983307 35.01126068 -16.60127258 33.82841492 C-17.04568688 30.67591533 -17.64976478 29.99347288 -20 28 C-20.00823575 23.14914077 -17.01388372 20.23167053 -13.9375 16.8125 C-12.93896534 15.67026539 -11.94158109 14.52702414 -10.9453125 13.3828125 C-10.4493457 12.81723633 -9.95337891 12.25166016 -9.44238281 11.66894531 C-6.17003298 7.88259063 -3.09639322 3.93037878 0 0 Z " fill="#F6DE88" transform="translate(101,105)"/>
<path d="M0 0 C11.10581426 -0.48650091 18.61455395 -0.22214691 27.07885742 7.29492188 C33.45097334 13.26322977 39.15616793 19.89679626 44.60229492 26.70898438 C42.62694862 30.83925392 40.71945016 34.46725928 36.60229492 36.70898438 C31.8939685 37.22281064 27.31906298 37.05789599 22.60229492 36.70898438 C22.60229492 40.33898437 22.60229492 43.96898437 22.60229492 47.70898438 C11.38229492 47.70898438 0.16229492 47.70898438 -11.39770508 47.70898438 C-11.39770508 44.07898438 -11.39770508 40.44898438 -11.39770508 36.70898438 C-12.42250977 36.76699219 -13.44731445 36.825 -14.50317383 36.88476562 C-15.86380518 36.93168395 -17.22448604 36.97718189 -18.58520508 37.02148438 C-19.59550781 37.08432617 -19.59550781 37.08432617 -20.6262207 37.1484375 C-24.55666531 37.244302 -26.17797373 36.88794701 -29.26098633 34.37695312 C-33.4129789 29.19265528 -33.4129789 29.19265528 -33.33911133 26.85351562 C-31.95373394 23.69761445 -29.79781095 21.79134318 -27.33520508 19.39648438 C-26.84076904 18.91228027 -26.34633301 18.42807617 -25.83691406 17.92919922 C-22.39724242 14.58799465 -18.85142573 11.39434353 -15.15161133 8.34179688 C-13.25168116 6.68957592 -13.25168116 6.68957592 -11.65405273 4.19238281 C-8.19229121 0.38227264 -4.95837281 0.47844248 0 0 Z " fill="#F8E089" transform="translate(249.397705078125,164.291015625)"/>
<path d="M0 0 C14.19 0 28.38 0 43 0 C43 11.55 43 23.1 43 35 C28.81 35 14.62 35 0 35 C0 23.45 0 11.9 0 0 Z " fill="#F1D984" transform="translate(379,166)"/>
<path d="M0 0 C11.55 0 23.1 0 35 0 C35 11.55 35 23.1 35 35 C23.45 35 11.9 35 0 35 C0 23.45 0 11.9 0 0 Z " fill="#F2DB87" transform="translate(333,166)"/>
<path d="M0 0 C11.55 0 23.1 0 35 0 C35 63.36 35 126.72 35 192 C22.46 192 9.92 192 -3 192 C-2.67 191.01 -2.34 190.02 -2 189 C15.325 189.495 15.325 189.495 33 190 C33 127.63 33 65.26 33 1 C22.44 1 11.88 1 1 1 C1 34.33 1 67.66 1 102 C0.01 102 -0.98 102 -2 102 C-1.83826325 101.42665546 -1.67652651 100.85331093 -1.50988865 100.26259232 C-1.00642432 98.02850744 -0.86229258 96.08403031 -0.84178162 93.79852295 C-0.8319928 92.96843719 -0.82220398 92.13835144 -0.81211853 91.28311157 C-0.80636307 90.3811203 -0.8006076 89.47912903 -0.79467773 88.54980469 C-0.78477814 87.59337067 -0.77487854 86.63693665 -0.76467896 85.65151978 C-0.7331035 82.49166332 -0.70832208 79.33179184 -0.68359375 76.171875 C-0.66302082 73.98040375 -0.64202425 71.78893644 -0.62062073 69.59747314 C-0.56543515 63.8304361 -0.51601033 58.06336345 -0.46777344 52.29626465 C-0.4175328 46.41101921 -0.3618601 40.52582546 -0.30664062 34.640625 C-0.199102 23.09379252 -0.09814942 11.54691611 0 0 Z " fill="#C3B37A" transform="translate(656,9)"/>
<path d="M0 0 C0.66 0 1.32 0 2 0 C2.00054477 0.56837711 2.00108953 1.13675423 2.00165081 1.72235489 C2.01661778 15.551925 2.0593776 29.38116861 2.13209057 43.21055984 C2.1664125 49.8984001 2.1920966 56.58599508 2.19555664 63.27392578 C2.19982832 69.72560671 2.22819803 76.176769 2.27343178 82.62828827 C2.28644283 85.09227226 2.29070179 87.5563182 2.28615379 90.02033234 C2.28127374 93.46627631 2.30722751 96.91068926 2.34057617 100.35644531 C2.33195053 101.37999619 2.32332489 102.40354706 2.31443787 103.45811462 C2.29601962 109.08670661 2.29601962 109.08670661 5.43257141 113.54901123 C6.27982285 114.02783752 7.12707428 114.50666382 8 115 C9.13899916 116.21834517 10.24529708 117.46829724 11.3125 118.75 C14.99167202 123.06127647 18.9470728 127.04181655 23 131 C22.154375 131.7425 21.30875 132.485 20.4375 133.25 C19.2309375 134.61125 19.2309375 134.61125 18 136 C18.15688424 138.12816413 18.15688424 138.12816413 19 140 C18.67 140.99 18.34 141.98 18 143 C10.41 135.41 2.82 127.82 -5 120 C-4.67 119.01 -4.34 118.02 -4 117 C-3.01 117 -2.02 117 -1 117 C-0.67 78.39 -0.34 39.78 0 0 Z " fill="#292212" transform="translate(275,48)"/>
<path d="M0 0 C0.33 0 0.66 0 1 0 C1.09359417 14.46475625 1.16378661 28.9294653 1.20724869 43.39446259 C1.22784171 50.11138555 1.25589934 56.82811996 1.30175781 63.54492188 C1.34526664 70.02883401 1.36914814 76.51255043 1.37950897 82.99659729 C1.38689119 85.46850159 1.40130692 87.94039536 1.42292023 90.41221619 C1.45202001 93.87856062 1.45595309 97.34409965 1.45410156 100.81054688 C1.47567322 102.33832764 1.47567322 102.33832764 1.49768066 103.89697266 C1.46054926 110.33498758 0.50455317 114.54111975 -3 120 C-4.485 120.495 -4.485 120.495 -6 121 C-5.67 121.99 -5.34 122.98 -5 124 C-3.515 123.01 -3.515 123.01 -2 122 C-0.515 122.99 -0.515 122.99 1 124 C1 123.34 1 122.68 1 122 C0.34 121.67 -0.32 121.34 -1 121 C0.98 120.01 2.96 119.02 5 118 C5 118.66 5 119.32 5 120 C5.66 120.33 6.32 120.66 7 121 C5.37660195 122.70884005 3.70680947 124.37446717 2 126 C1.34 126 0.68 126 0 126 C-0.22945312 126.5671875 -0.45890625 127.134375 -0.6953125 127.71875 C-2.34215553 130.59825996 -4.37122718 132.33055886 -6.875 134.5 C-8.58876602 135.99379008 -10.29732337 137.49358204 -12 139 C-13.14855469 140.00546875 -13.14855469 140.00546875 -14.3203125 141.03125 C-16.4326996 143.07584428 -16.4326996 143.07584428 -16 147 C-16.99 147.33 -17.98 147.66 -19 148 C-19 146.02 -19 144.04 -19 142 C-18.34 142 -17.68 142 -17 142 C-17.33 141.01 -17.66 140.02 -18 139 C-16.875 136.875 -16.875 136.875 -15 135 C-12.3125 134.25 -12.3125 134.25 -10 134 C-10.66 131.69 -11.32 129.38 -12 127 C-14.475 127.495 -14.475 127.495 -17 128 C-16.195625 127.030625 -15.39125 126.06125 -14.5625 125.0625 C-14.02044922 124.39726318 -13.47839844 123.73202637 -12.91992188 123.04663086 C-11 121 -11 121 -8.72070312 119.51782227 C-4.98413864 116.84320046 -2.48536023 114.23610239 -1.48410034 109.62319946 C-0.63067398 102.06960743 -0.84657707 94.46331894 -0.9375 86.875 C-0.93438409 84.40160292 -0.92716213 81.92820791 -0.91601562 79.45483398 C-0.89709546 72.9643568 -0.93090774 66.47522595 -0.97674561 59.98492432 C-1.02291243 52.07367563 -1.00726287 44.16239107 -1.00071716 36.2510376 C-0.99678288 30.10256582 -1.00216607 23.95454859 -1.03491211 17.80615234 C-1.03945908 16.68130936 -1.04400604 15.55646637 -1.0486908 14.39753723 C-1.05768961 12.28788661 -1.07056928 10.17824787 -1.08790588 8.06864929 C-1.0911235 7.14630997 -1.09434113 6.22397064 -1.09765625 5.27368164 C-1.10551147 4.06477013 -1.10551147 4.06477013 -1.11352539 2.83143616 C-1 1 -1 1 0 0 Z " fill="#48402A" transform="translate(233,47)"/>
<path d="M0 0 C0.99 0 1.98 0 3 0 C3 0.99 3 1.98 3 3 C11.58 3 20.16 3 29 3 C29 3.33 29 3.66 29 4 C20.75 4 12.5 4 4 4 C4 15.55 4 27.1 4 39 C3.34 39 2.68 39 2 39 C2 38.34 2 37.68 2 37 C-0.64 37 -3.28 37 -6 37 C-6 26.11 -6 15.22 -6 4 C-5.01 4 -4.02 4 -3 4 C-2.34 3.67 -1.68 3.34 -1 3 C-0.67 2.01 -0.34 1.02 0 0 Z " fill="#1F1C15" transform="translate(257,5)"/>
<path d="M0 0 C2.87837175 1.12041131 4.10881027 1.64299848 6 4 C6.93744373 8.49460985 6.75751374 13.01120469 6.68115234 17.58105469 C6.67945959 18.99049304 6.68041051 20.39993668 6.68380737 21.80937195 C6.68552946 25.63385682 6.65024692 29.45721342 6.60836363 33.28143597 C6.57086415 37.27856925 6.56733193 41.27572821 6.56021118 45.27301025 C6.54155988 52.84151883 6.49231951 60.40950761 6.43211424 67.97778726 C6.36505755 76.59432937 6.33206231 85.21089626 6.30194163 93.82763433 C6.23922031 111.55205096 6.13368022 129.2759837 6 147 C5.34 147 4.68 147 4 147 C3.99761165 146.27701092 3.99522329 145.55402184 3.99276257 144.80912399 C3.93364903 127.2242823 3.85812247 109.63958805 3.76428509 92.05489731 C3.71930275 83.55109648 3.67989376 75.04733776 3.65356445 66.54345703 C3.63060406 59.13222543 3.5972281 51.72112682 3.55129844 44.31000066 C3.52733964 40.38516208 3.50862835 36.46045542 3.50238609 32.53554535 C3.49634715 28.84188747 3.47639097 25.14856725 3.44572449 21.45503426 C3.43272676 19.45197092 3.43451745 17.44882878 3.4367218 15.44572449 C3.42418365 14.25383011 3.41164551 13.06193573 3.39872742 11.83392334 C3.39411845 10.79782803 3.38950949 9.76173271 3.38476086 8.69424057 C2.94610237 5.62258848 1.96170703 4.3411276 0 2 C0 1.34 0 0.68 0 0 Z " fill="#EFDC91" transform="translate(305,29)"/>
<path d="M0 0 C0.66 0.33 1.32 0.66 2 1 C2.20047446 19.47980446 2.3838038 37.9597026 2.54658794 56.43987846 C2.6225694 65.02008062 2.70421183 73.60015987 2.79907227 82.18017578 C2.88171518 89.65641959 2.95384767 97.13267729 3.01323253 104.60914338 C3.0450621 108.56979885 3.08223981 112.53024461 3.13199425 116.49071884 C3.1786204 120.21537869 3.21123512 123.93989365 3.2329216 127.66477966 C3.24340065 129.03466402 3.25907956 130.40451956 3.28024101 131.77428055 C3.30828396 133.63890407 3.3161191 135.50379941 3.32279968 137.36862183 C3.33293941 138.41393507 3.34307913 139.45924831 3.35352612 140.53623772 C3.2368625 141.34927927 3.12019888 142.16232082 3 143 C1.515 143.99 1.515 143.99 0 145 C-0.66 144.34 -1.32 143.68 -2 143 C-1.67 142.67 -1.34 142.34 -1 142 C-0.89131838 140.16541825 -0.85311584 138.3266395 -0.84178162 136.48887634 C-0.8319928 135.2926918 -0.82220398 134.09650726 -0.81211853 132.86407471 C-0.80621359 131.52648966 -0.80040319 130.18890419 -0.79467773 128.85131836 C-0.78510447 127.45217089 -0.77509472 126.05302634 -0.76467896 124.65388489 C-0.737564 120.84416691 -0.71659025 117.03443646 -0.69667697 113.22467494 C-0.67485792 109.24746201 -0.64744933 105.27028781 -0.62062073 101.29310608 C-0.57063848 93.7566427 -0.52572025 86.22015788 -0.48259836 78.68365246 C-0.43327316 70.10577421 -0.3783376 61.52793481 -0.32291877 52.9500941 C-0.20901383 35.30009878 -0.10219343 17.65006682 0 0 Z " fill="#463C21" transform="translate(311,34)"/>
<path d="M0 0 C11.55 0 23.1 0 35 0 C35 18.48 35 36.96 35 56 C34.67 56 34.34 56 34 56 C33.67 38.84 33.34 21.68 33 4 C22.77 3.67 12.54 3.34 2 3 C2.05220703 7.33511719 2.05220703 7.33511719 2.10546875 11.7578125 C2.12888835 14.56769829 2.14709125 17.37757307 2.16479492 20.1875 C2.17984899 22.13514094 2.2002968 24.08274816 2.22631836 26.03027344 C2.26285053 28.83537128 2.27976033 31.64001954 2.29296875 34.4453125 C2.30845261 35.31116974 2.32393646 36.17702698 2.33988953 37.06912231 C2.3415057 42.92059561 1.51512789 47.29140074 -2.625 51.75 C-3.305625 52.36875 -3.305625 52.36875 -4 53 C-4.33 53.66 -4.66 54.32 -5 55 C-6.32 54.67 -7.64 54.34 -9 54 C-8.43410156 53.54061035 -7.86820312 53.0812207 -7.28515625 52.60791016 C-0.42368683 45.83537454 -0.10481162 39.75264204 0.04833984 30.46783447 C0.05874566 27.43621195 0.03035798 24.40646162 0 21.375 C0.00810122 19.30076397 0.019787 17.22653866 0.03515625 15.15234375 C0.07150788 10.09946719 0.03406798 5.05483604 0 0 Z " fill="#C0B174" transform="translate(85,8)"/>
<path d="M0 0 C4.45384414 6.68076621 7.43964356 14.96822437 8 23 C8.66 23 9.32 23 10 23 C10.33 25.31 10.66 27.62 11 30 C10.01 29.67 9.02 29.34 8 29 C3.81822976 32.83081939 3.81822976 32.83081939 2 38 C1.63648438 36.74896484 1.63648438 36.74896484 1.265625 35.47265625 C-1.13090161 27.42585728 -3.89914506 19.98438006 -7.8125 12.5625 C-8.204375 11.716875 -8.59625 10.87125 -9 10 C-8.67 9.34 -8.34 8.68 -8 8 C-6.515 8.99 -6.515 8.99 -5 10 C-1.85778033 9.68493373 -1.85778033 9.68493373 1 9 C0.67 6.03 0.34 3.06 0 0 Z " fill="#1C1912" transform="translate(596,54)"/>
<path d="M0 0 C0.66 0 1.32 0 2 0 C2 47.52 2 95.04 2 144 C1.01 144.33 0.02 144.66 -1 145 C-1 145.99 -1 146.98 -1 148 C-2.94348501 149.73223664 -4.94720004 151.39881603 -7 153 C-7.99 153.99 -7.99 153.99 -9 155 C-9.99 154.67 -10.98 154.34 -12 154 C-10.37660195 152.29115995 -8.70680947 150.62553283 -7 149 C-6.34 149 -5.68 149 -5 149 C-4.5978125 148.071875 -4.5978125 148.071875 -4.1875 147.125 C-3 145 -3 145 0 143 C0.44853474 140.41253797 0.44853474 140.41253797 0.36076355 137.33065796 C0.36694954 135.52169792 0.36694954 135.52169792 0.3732605 133.67619324 C0.3626424 132.33279197 0.35173796 130.98939295 0.34057617 129.64599609 C0.33973031 128.23685219 0.34020424 126.82770697 0.34190369 125.41856384 C0.34276667 121.58604479 0.3250922 117.75380572 0.30418181 113.92135191 C0.2854653 109.91882453 0.28366855 105.91629119 0.28010559 101.91372681 C0.2707703 94.33117271 0.24613654 86.74874791 0.21605712 79.16625082 C0.18255918 70.5351898 0.16603871 61.90412269 0.15097082 53.27301288 C0.11958821 35.51526853 0.06679899 17.75764465 0 0 Z " fill="#261E07" transform="translate(556,33)"/>
<path d="M0 0 C0.33 0 0.66 0 1 0 C1 10.23 1 20.46 1 31 C13.54 31 26.08 31 39 31 C39 20.77 39 10.54 39 0 C39.66 0 40.32 0 41 0 C41 10.89 41 21.78 41 33 C27.47 33 13.94 33 0 33 C0 22.11 0 11.22 0 0 Z " fill="#F4E194" transform="translate(380,167)"/>
<path d="M0 0 C0.33 0 0.66 0 1 0 C1 10.89 1 21.78 1 33 C-2.63 33 -6.26 33 -10 33 C-10.66 34.32 -11.32 35.64 -12 37 C-12.99 37.495 -12.99 37.495 -14 38 C-14.33 74.3 -14.66 110.6 -15 148 C-15.66 147.67 -16.32 147.34 -17 147 C-16.505 92.055 -16.505 92.055 -16 36 C-14.02 35.505 -14.02 35.505 -12 35 C-12 34.01 -12 33.02 -12 32 C-8.04 32 -4.08 32 0 32 C0 21.44 0 10.88 0 0 Z " fill="#F6E597" transform="translate(247,10)"/>
<path d="M0 0 C0.99 0.495 0.99 0.495 2 1 C2.33 14.53 2.66 28.06 3 42 C3.99 42 4.98 42 6 42 C6.33 42.33 6.66 42.66 7 43 C7.33 42.34 7.66 41.68 8 41 C8.99 41 9.98 41 11 41 C9.65686815 44.78091617 7.97035316 47.65651916 5.5 50.8125 C4.8915625 51.60269531 4.283125 52.39289063 3.65625 53.20703125 C3.1096875 53.79871094 2.563125 54.39039063 2 55 C1.34 55 0.68 55 0 55 C0 36.85 0 18.7 0 0 Z " fill="#CEBF79" transform="translate(60,82)"/>
<path d="M0 0 C2.13001627 3.19502441 2.25425353 4.0194096 2.2784729 7.68864441 C2.28963638 8.65198196 2.30079987 9.61531952 2.31230164 10.60784912 C2.31446182 11.66304749 2.31662201 12.71824585 2.31884766 13.80541992 C2.32889328 14.91776505 2.3389389 16.03011017 2.34928894 17.17616272 C2.38023401 20.86092603 2.39718768 24.54561632 2.4140625 28.23046875 C2.43276502 30.78209568 2.45233773 33.33371636 2.4727478 35.8853302 C2.51891278 41.92008668 2.5562862 47.95483598 2.58942068 53.98967296 C2.62763311 60.86028682 2.67704554 67.7308058 2.72740483 74.6013397 C2.8307436 88.7341561 2.91999764 102.86703361 3 117 C2.34 116.67 1.68 116.34 1 116 C0.99853344 115.43070109 0.99706688 114.86140219 0.99555588 114.2748518 C0.95852041 100.42896178 0.89929593 86.58332025 0.81609726 72.73762798 C0.77653646 66.0419497 0.74389674 59.34641545 0.72900391 52.65063477 C0.71389406 46.19252515 0.67954945 39.73478158 0.63169098 33.27683449 C0.61681854 30.8092345 0.60895565 28.34158227 0.60811615 25.87393761 C0.60576241 22.42556804 0.57881029 18.97822327 0.54589844 15.5300293 C0.5509288 14.50288315 0.55595917 13.475737 0.56114197 12.41746521 C0.54722916 11.47937012 0.53331635 10.54127502 0.51898193 9.57475281 C0.51529476 8.75896602 0.51160759 7.94317923 0.50780869 7.10267162 C0.16217719 4.83360153 0.16217719 4.83360153 -1.85763168 3.24606037 C-4.55573345 1.67677013 -6.64744516 1.49717588 -9.75 1.3125 C-11.22726562 1.21388672 -11.22726562 1.21388672 -12.734375 1.11328125 C-13.85585938 1.05720703 -13.85585938 1.05720703 -15 1 C-15 0.67 -15 0.34 -15 0 C-13.25093341 -0.19601608 -11.50068154 -0.38147403 -9.75 -0.5625 C-8.77546875 -0.66691406 -7.8009375 -0.77132812 -6.796875 -0.87890625 C-4.18356628 -0.9920523 -2.41373399 -0.97724186 0 0 Z " fill="#D9C98E" transform="translate(276,43)"/>
<path d="M0 0 C3.80635497 3.20760251 7.54563567 6.40746109 11 10 C9.38960628 14.18702366 6.96321005 17.8420956 3 20 C-1.70832643 20.51382627 -6.28323194 20.34891161 -11 20 C-11 19.34 -11 18.68 -11 18 C-10.08476562 17.97421875 -9.16953125 17.9484375 -8.2265625 17.921875 C-7.03804688 17.86515625 -5.84953125 17.8084375 -4.625 17.75 C-3.44164062 17.70359375 -2.25828125 17.6571875 -1.0390625 17.609375 C2.11291753 17.34351201 2.11291753 17.34351201 3.4140625 14.953125 C3.60742188 14.30859375 3.80078125 13.6640625 4 13 C2.02 13 0.04 13 -2 13 C-1.39174965 8.65535464 -0.73832608 4.32448133 0 0 Z " fill="#F5DE89" transform="translate(283,181)"/>
<path d="M0 0 C14.19 0 28.38 0 43 0 C43 0.66 43 1.32 43 2 C37.6541673 2.91934702 32.63541951 3.0681642 27.22265625 2.87890625 C26.41130722 2.85529526 25.59995819 2.83168427 24.76402283 2.80735779 C22.19664142 2.73136277 19.62961191 2.64706652 17.0625 2.5625 C15.31186563 2.50921489 13.56121458 2.45647505 11.81054688 2.40429688 C7.54014576 2.27583562 3.27003995 2.13993369 -1 2 C-0.67 1.34 -0.34 0.68 0 0 Z " fill="#181302" transform="translate(380,201)"/>
<path d="M0 0 C1.5152124 0.00374634 1.5152124 0.00374634 3.06103516 0.00756836 C4.34800293 0.01667236 5.6349707 0.02577637 6.9609375 0.03515625 C13.0865625 0.06609375 13.0865625 0.06609375 19.3359375 0.09765625 C19.3359375 11.31765625 19.3359375 22.53765625 19.3359375 34.09765625 C19.0059375 34.09765625 18.6759375 34.09765625 18.3359375 34.09765625 C18.3359375 23.20765625 18.3359375 12.31765625 18.3359375 1.09765625 C10.7459375 1.09765625 3.1559375 1.09765625 -4.6640625 1.09765625 C-4.3340625 2.08765625 -4.0040625 3.07765625 -3.6640625 4.09765625 C-6.3040625 4.75765625 -8.9440625 5.41765625 -11.6640625 6.09765625 C-7.76466634 1.02844125 -6.36333038 -0.03213803 0 0 Z " fill="#D6C685" transform="translate(474.6640625,8.90234375)"/>
<path d="M0 0 C11.55 0 23.1 0 35 0 C35 0.66 35 1.32 35 2 C17.675 2.495 17.675 2.495 0 3 C0 2.01 0 1.02 0 0 Z " fill="#191303" transform="translate(85,201)"/>
<path d="M0 0 C0 3.59857954 -0.95830515 5.09451118 -3 8 C-3.66 8 -4.32 8 -5 8 C-5 8.99 -5 9.98 -5 11 C-10.98171854 15.11378116 -17.35382449 14.33583469 -24.375 14.1875 C-26.19451172 14.16719727 -26.19451172 14.16719727 -28.05078125 14.14648438 C-31.03431206 14.11124582 -34.01692458 14.06197525 -37 14 C-37 13.67 -37 13.34 -37 13 C-36.30551758 13.03254883 -35.61103516 13.06509766 -34.89550781 13.09863281 C-20.56039833 14.1726616 -20.56039833 14.1726616 -7.66796875 9.26171875 C-4.70079419 6.45648209 -2.27917415 3.38052005 0 0 Z " fill="#28210A" transform="translate(543,188)"/>
<path d="M0 0 C0.66 0.99 1.32 1.98 2 3 C1.67 3.66 1.34 4.32 1 5 C2.32 5.33 3.64 5.66 5 6 C4.34 8.64 3.68 11.28 3 14 C1.35 13.67 -0.3 13.34 -2 13 C-4.125 6.375 -4.125 6.375 -3 3 C-2.01 3 -1.02 3 0 3 C0 2.01 0 1.02 0 0 Z " fill="#121110" transform="translate(282,165)"/>
<path d="M0 0 C0.66 0.33 1.32 0.66 2 1 C0.87607452 4.89051128 -0.03457324 7.27180738 -3 10 C-3.45375 10.886875 -3.9075 11.77375 -4.375 12.6875 C-4.91125 13.450625 -5.4475 14.21375 -6 15 C-8.6875 15.3125 -8.6875 15.3125 -11 15 C-8.88060821 11.28939292 -6.5076108 8.00116082 -3.8125 4.6875 C-2.73935547 3.36298828 -2.73935547 3.36298828 -1.64453125 2.01171875 C-1.10183594 1.34785156 -0.55914062 0.68398437 0 0 Z " fill="#292215" transform="translate(82,110)"/>
<path d="M0 0 C0.99 0.66 1.98 1.32 3 2 C1.38960628 6.18702366 -1.03678995 9.8420956 -5 12 C-9.70832643 12.51382627 -14.28323194 12.34891161 -19 12 C-19 11.34 -19 10.68 -19 10 C-18.10796875 9.97421875 -17.2159375 9.9484375 -16.296875 9.921875 C-15.12640625 9.86515625 -13.9559375 9.8084375 -12.75 9.75 C-11.00976562 9.68039063 -11.00976562 9.68039063 -9.234375 9.609375 C-5.49648041 8.90513399 -4.44405395 7.80281416 -2 5 C-1.34 5 -0.68 5 0 5 C0 3.35 0 1.7 0 0 Z " fill="#D7C889" transform="translate(291,189)"/>
<path d="M0 0 C1 2 1 2 0.328125 4.53125 C-0.02765625 5.5109375 -0.3834375 6.490625 -0.75 7.5 C-1.09546875 8.4796875 -1.4409375 9.459375 -1.796875 10.46875 C-3 13 -3 13 -6 15 C-7.32 14.34 -8.64 13.68 -10 13 C-5.05 6.565 -5.05 6.565 0 0 Z " fill="#1D1810" transform="translate(118,64)"/>
<path d="M0 0 C11.88 0 23.76 0 36 0 C36.66 1.98 37.32 3.96 38 6 C37.01 5.67 36.02 5.34 35 5 C35 3.68 35 2.36 35 1 C23.45 1 11.9 1 0 1 C0 0.67 0 0.34 0 0 Z " fill="#D8C887" transform="translate(580,9)"/>
<path d="M0 0 C0.99 0.33 1.98 0.66 3 1 C2.625 3.4375 2.625 3.4375 2 6 C1.01 6.495 1.01 6.495 0 7 C0.33 7.99 0.66 8.98 1 10 C0.4225 9.79375 -0.155 9.5875 -0.75 9.375 C-3.51967567 8.91338739 -4.64561267 9.57055055 -7 11 C-6.45244723 7.16713064 -4.7666959 5.59901736 -2 3 C-1.34 2.01 -0.68 1.02 0 0 Z " fill="#0F1114" transform="translate(233,161)"/>
<path d="M0 0 C0.66 0 1.32 0 2 0 C2 0.66 2 1.32 2 2 C2.66 2 3.32 2 4 2 C3 5 3 5 1.1875 6.125 C-2.01928706 7.40771482 -4.53128035 8 -8 8 C-8.33 6.68 -8.66 5.36 -9 4 C-8.443125 4.268125 -7.88625 4.53625 -7.3125 4.8125 C-6.1678125 4.9053125 -6.1678125 4.9053125 -5 5 C-2.35412766 2.60414714 -2.35412766 2.60414714 0 0 Z " fill="#2F291A" transform="translate(213,177)"/>
<path d="M0 0 C0 4.76583853 -2.42289263 7.31930925 -5.4375 10.875 C-6.283125 11.57625 -7.12875 12.2775 -8 13 C-9.32 12.67 -10.64 12.34 -12 12 C-8.04 8.04 -4.08 4.08 0 0 Z " fill="#D9C788" transform="translate(462,15)"/>
<path d="M0 0 C0.33 0.66 0.66 1.32 1 2 C0.0625 4.125 0.0625 4.125 -1 6 C-1.66 6 -2.32 6 -3 6 C-3.66 8.97 -4.32 11.94 -5 15 C-5.99 14.34 -6.98 13.68 -8 13 C-7.48118887 8.8275894 -6.28848726 6.74583179 -3.4375 3.6875 C-2.79683594 2.99011719 -2.15617187 2.29273437 -1.49609375 1.57421875 C-1.00238281 1.05472656 -0.50867188 0.53523438 0 0 Z " fill="#D6C886" transform="translate(89,120)"/>
<path d="M0 0 C0 0.99 0 1.98 0 3 C-0.66 3 -1.32 3 -2 3 C-2 3.99 -2 4.98 -2 6 C-3.94348501 7.73223664 -5.94720004 9.39881603 -8 11 C-8.66 11.66 -9.32 12.32 -10 13 C-10.99 12.67 -11.98 12.34 -13 12 C-11.37660195 10.29115995 -9.70680947 8.62553283 -8 7 C-7.34 7 -6.68 7 -6 7 C-5.7525 6.401875 -5.505 5.80375 -5.25 5.1875 C-3.83629988 2.71352479 -2.34944617 1.56629745 0 0 Z " fill="#393017" transform="translate(557,175)"/>
<path d="M0 0 C1 2 1 2 0.43359375 3.8046875 C-1.98590271 8.83344485 -4.08928578 11.32142861 -9 14 C-9 9.82438593 -7.16647522 8.46042213 -4.5 5.3125 C-3.6646875 4.31863281 -2.829375 3.32476562 -1.96875 2.30078125 C-0.99421875 1.16189453 -0.99421875 1.16189453 0 0 Z " fill="#342B17" transform="translate(93,96)"/>
<path d="M0 0 C0.33 0.66 0.66 1.32 1 2 C1.66 2.33 2.32 2.66 3 3 C1.37660195 4.70884005 -0.29319053 6.37446717 -2 8 C-2.66 8 -3.32 8 -4 8 C-4.33 8.66 -4.66 9.32 -5 10 C-5.33 8.35 -5.66 6.7 -6 5 C-5.01 5.33 -4.02 5.66 -3 6 C-3 5.34 -3 4.68 -3 4 C-3.66 3.67 -4.32 3.34 -5 3 C-3.35 2.01 -1.7 1.02 0 0 Z " fill="#292214" transform="translate(237,165)"/>
<path d="M0 0 C0.99 0.33 1.98 0.66 3 1 C-1.95 7.435 -1.95 7.435 -7 14 C-7.33 12.68 -7.66 11.36 -8 10 C-7.01 9.67 -6.02 9.34 -5 9 C-4.26676204 6.98491642 -4.26676204 6.98491642 -4 5 C-3.34 5 -2.68 5 -2 5 C-1.34 3.35 -0.68 1.7 0 0 Z " fill="#E3D28E" transform="translate(109,72)"/>
<path d="M0 0 C0.66 0.99 1.32 1.98 2 3 C1.67 3.99 1.34 4.98 1 6 C0.1028125 5.0409375 0.1028125 5.0409375 -0.8125 4.0625 C-5.34670163 1.12860483 -9.69835408 1.18569688 -15 1 C-15 0.67 -15 0.34 -15 0 C-13.25093341 -0.19601608 -11.50068154 -0.38147403 -9.75 -0.5625 C-8.77546875 -0.66691406 -7.8009375 -0.77132812 -6.796875 -0.87890625 C-4.18356628 -0.9920523 -2.41373399 -0.97724186 0 0 Z " fill="#C4B577" transform="translate(276,43)"/>
<path d="M0 0 C0 3.28565953 -0.24329531 4.28509275 -2 7 C-3.92358201 8.79056836 -5.92632276 10.37712216 -8 12 C-8.66 11.34 -9.32 10.68 -10 10 C-6.7 6.7 -3.4 3.4 0 0 Z " fill="#E3D08C" transform="translate(209,23)"/>
<path d="M0 0 C0.99 0.33 1.98 0.66 3 1 C0.69 3.64 -1.62 6.28 -4 9 C-4.33 7.68 -4.66 6.36 -5 5 C-5.99 4.67 -6.98 4.34 -8 4 C-6.02253397 3.26919734 -4.01927511 2.60578253 -2 2 C-1.34 2.33 -0.68 2.66 0 3 C0 2.01 0 1.02 0 0 Z " fill="#E5D088" transform="translate(214,173)"/>
<path d="M0 0 C0.66 0.33 1.32 0.66 2 1 C1.67 2.32 1.34 3.64 1 5 C0.34 5 -0.32 5 -1 5 C-1 5.66 -1 6.32 -1 7 C-3.31 7.66 -5.62 8.32 -8 9 C-7.04270084 7.87411986 -6.08412105 6.7493285 -5.125 5.625 C-4.59132812 4.99851563 -4.05765625 4.37203125 -3.5078125 3.7265625 C-2.38567993 2.44163349 -1.20628025 1.20628025 0 0 Z " fill="#342B19" transform="translate(224,166)"/>
<path d="M0 0 C0.33 0 0.66 0 1 0 C1.1875 2.3125 1.1875 2.3125 1 5 C-0.4375 6.6875 -0.4375 6.6875 -2 8 C-2.33 8.66 -2.66 9.32 -3 10 C-4.32 9.67 -5.64 9.34 -7 9 C-5.85793642 7.49712782 -4.71125043 5.99776716 -3.5625 4.5 C-2.92441406 3.6646875 -2.28632812 2.829375 -1.62890625 1.96875 C-0.82259766 0.99421875 -0.82259766 0.99421875 0 0 Z " fill="#E2CF8C" transform="translate(83,53)"/>
<path d="M0 0 C-1.24976756 3.65316671 -1.67098753 4.78065836 -5 7 C-5.99 7 -6.98 7 -8 7 C-6.13932792 2.84926997 -4.83061881 0 0 0 Z " fill="#251E0F" transform="translate(233,160)"/>
<path d="M0 0 C0.66 0.33 1.32 0.66 2 1 C0.64458676 5.06623972 -1.57009469 6.53046818 -5 9 C-5.99 8.67 -6.98 8.34 -8 8 C-5.36 5.36 -2.72 2.72 0 0 Z " fill="#CCBE7C" transform="translate(228,178)"/>
<path d="M0 0 C0.66 0 1.32 0 2 0 C2.66 1.65 3.32 3.3 4 5 C2.68 6.32 1.36 7.64 0 9 C-0.33 8.67 -0.66 8.34 -1 8 C-0.82364548 5.30917128 -0.38164079 2.67148554 0 0 Z " fill="#1A190E" transform="translate(60,73)"/>
<path d="M0 0 C2.31 1.98 4.62 3.96 7 6 C6.01 6.99 5.02 7.98 4 9 C0 5 0 5 -0.0625 2.4375 C-0.041875 1.633125 -0.02125 0.82875 0 0 Z " fill="#282116" transform="translate(450,182)"/>
<path d="M0 0 C0.66 0.33 1.32 0.66 2 1 C0.4169423 5.2742558 -2.50568404 7.26531794 -6 10 C-6.66 9.34 -7.32 8.68 -8 8 C-6.6875 6.5 -6.6875 6.5 -5 5 C-4.01 5 -3.02 5 -2 5 C-1.34 3.35 -0.68 1.7 0 0 Z " fill="#F1DE96" transform="translate(545,182)"/>
<path d="M0 0 C6.66666667 2.22222222 6.66666667 2.22222222 9 6 C9 6.99 9 7.98 9 9 C5.72712496 7.90904165 4.95539407 7.08205507 2.8125 4.5 C2.01779297 3.55640625 2.01779297 3.55640625 1.20703125 2.59375 C0 1 0 1 0 0 Z " fill="#D9C987" transform="translate(456,187)"/>
<path d="M0 0 C3.82946843 1.45255699 5.12050295 3.42895561 7 7 C5.68 7.33 4.36 7.66 3 8 C3 7.34 3 6.68 3 6 C2.01 5.67 1.02 5.34 0 5 C0 3.35 0 1.7 0 0 Z " fill="#282013" transform="translate(283,165)"/>
<path d="M0 0 C0 3.73335719 -1.20800723 5.76062846 -3 9 C-3.66 9.66 -4.32 10.32 -5 11 C-5.99 10.67 -6.98 10.34 -8 10 C-5.36 6.7 -2.72 3.4 0 0 Z " fill="#DBCC89" transform="translate(69,71)"/>
<path d="M0 0 C0.33 0.66 0.66 1.32 1 2 C1.66 2 2.32 2 3 2 C3 2.66 3 3.32 3 4 C3.66 4 4.32 4 5 4 C5.33 4.99 5.66 5.98 6 7 C6.66 7.33 7.32 7.66 8 8 C7.67 8.66 7.34 9.32 7 10 C5.68412059 8.87895467 4.37239647 7.75303035 3.0625 6.625 C2.33160156 5.99851563 1.60070312 5.37203125 0.84765625 4.7265625 C-1 3 -1 3 -2 1 C-1.34 0.67 -0.68 0.34 0 0 Z " fill="#D0C181" transform="translate(448,177)"/>
<path d="M0 0 C2.8045156 1.4022578 3.0442118 3.06070622 4.1875 5.9375 C4.55230469 6.83339844 4.91710937 7.72929688 5.29296875 8.65234375 C6 11 6 11 5 13 C4.360625 12.030625 3.72125 11.06125 3.0625 10.0625 C1.3034741 7.23963731 1.3034741 7.23963731 0 6 C-0.04080783 4.00041636 -0.04254356 1.99954746 0 0 Z " fill="#CBBD81" transform="translate(580,46)"/>
<path d="M0 0 C0.66 0 1.32 0 2 0 C2.66 0.66 3.32 1.32 4 2 C4.66 1.67 5.32 1.34 6 1 C6 3.31 6 5.62 6 8 C1.3125 4.38671875 1.3125 4.38671875 0 3 C0 2.01 0 1.02 0 0 Z " fill="#E3D388" transform="translate(291,170)"/>
<path d="M0 0 C0.66 0 1.32 0 2 0 C2 0.66 2 1.32 2 2 C2.99 2.33 3.98 2.66 5 3 C5.6875 5.0625 5.6875 5.0625 6 7 C5.34 7 4.68 7 4 7 C3.67 7.66 3.34 8.32 3 9 C2.01 6.03 1.02 3.06 0 0 Z " fill="#E4D189" transform="translate(621,117)"/>
<path d="M0 0 C1.32 0.33 2.64 0.66 4 1 C4 4.3 4 7.6 4 11 C1.6870518 8.6870518 1.50419025 7.52095125 0.875 4.375 C0.70742188 3.55773437 0.53984375 2.74046875 0.3671875 1.8984375 C0.24601563 1.27195312 0.12484375 0.64546875 0 0 Z " fill="#302616" transform="translate(650,95)"/>
<path d="M0 0 C0 3.57575896 -1.08840607 5.05295935 -3 8 C-4.32 7.67 -5.64 7.34 -7 7 C-4.69 4.69 -2.38 2.38 0 0 Z " fill="#41361E" transform="translate(543,188)"/>
<path d="M0 0 C2 0.25 2 0.25 4 1 C4.33 1.99 4.66 2.98 5 4 C2.36 4.33 -0.28 4.66 -3 5 C-1.125 1.125 -1.125 1.125 0 0 Z " fill="#D5C784" transform="translate(101,105)"/>
<path d="M0 0 C0.99 0.66 1.98 1.32 3 2 C-0.465 4.97 -0.465 4.97 -4 8 C-3.07377893 4.29511572 -2.32789515 2.83395931 0 0 Z " fill="#261B0F" transform="translate(204,24)"/>
<path d="M0 0 C2.31 1.98 4.62 3.96 7 6 C5 7 5 7 1.875 6.0625 C0.92625 5.711875 -0.0225 5.36125 -1 5 C-0.67 3.35 -0.34 1.7 0 0 Z " fill="#2F2510" transform="translate(459,191)"/>
<path d="M0 0 C0.33 1.98 0.66 3.96 1 6 C0.01 6.33 -0.98 6.66 -2 7 C-2.66 6.34 -3.32 5.68 -4 5 C-4 4.01 -4 3.02 -4 2 C-1 0 -1 0 0 0 Z " fill="#F2DD84" transform="translate(550,176)"/>
<path d="M0 0 C0.6875 1.75 0.6875 1.75 1 4 C-0.25 6.25 -0.25 6.25 -2 8 C-2.99 8 -3.98 8 -5 8 C-3.62845496 5.04590299 -2.01136276 2.55991624 0 0 Z " fill="#352E14" transform="translate(70,125)"/>
<path d="M0 0 C0.99 0.495 0.99 0.495 2 1 C2.6328125 3.06640625 2.6328125 3.06640625 3.125 5.5625 C3.29257812 6.38878906 3.46015625 7.21507812 3.6328125 8.06640625 C3.75398437 8.70449219 3.87515625 9.34257813 4 10 C3.34 10 2.68 10 2 10 C2 8.68 2 7.36 2 6 C1.34 6 0.68 6 0 6 C0 4.02 0 2.04 0 0 Z " fill="#CCBD7D" transform="translate(629,44)"/>
<path d="M0 0 C0.66 0.66 1.32 1.32 2 2 C2.33 1.34 2.66 0.68 3 0 C3.66 0 4.32 0 5 0 C3.75023244 3.65316671 3.32901247 4.78065836 0 7 C0 4.69 0 2.38 0 0 Z " fill="#EBD898" transform="translate(61,129)"/>
<path d="M0 0 C0.66666667 1.33333333 1.33333333 2.66666667 2 4 C2.8353125 5.546875 2.8353125 5.546875 3.6875 7.125 C4.120625 8.07375 4.55375 9.0225 5 10 C4.67 10.66 4.34 11.32 4 12 C3.896875 11.360625 3.79375 10.72125 3.6875 10.0625 C3.460625 9.381875 3.23375 8.70125 3 8 C2.01 7.67 1.02 7.34 0 7 C0 4.69 0 2.38 0 0 Z " fill="#D0BE7F" transform="translate(586,60)"/>
<path d="M0 0 C-0.66 1.32 -1.32 2.64 -2 4 C-3.32 3.67 -4.64 3.34 -6 3 C-6 2.34 -6 1.68 -6 1 C-4 0 -4 0 0 0 Z " fill="#E8D992" transform="translate(306,179)"/>
<path d="M0 0 C-0.33 1.65 -0.66 3.3 -1 5 C-2.32 4.34 -3.64 3.68 -5 3 C-5 2.34 -5 1.68 -5 1 C-2 0 -2 0 0 0 Z " fill="#F5E493" transform="translate(209,178)"/>
<path d="M0 0 C2.95183101 2.95183101 3.08663988 5.95511947 4 10 C3.34 9.67 2.68 9.34 2 9 C2 8.34 2 7.68 2 7 C1.34 7 0.68 7 0 7 C0 4.69 0 2.38 0 0 Z " fill="#CFBE7E" transform="translate(604,106)"/>
<path d="M0 0 C0.99 0.33 1.98 0.66 3 1 C1.35 2.98 -0.3 4.96 -2 7 C-2.33 5.68 -2.66 4.36 -3 3 C-2.01 2.67 -1.02 2.34 0 2 C0 1.34 0 0.68 0 0 Z " fill="#E5D38C" transform="translate(91,95)"/>
<path d="M0 0 C2.475 0.495 2.475 0.495 5 1 C5.33 1.99 5.66 2.98 6 4 C6.66 4.33 7.32 4.66 8 5 C7.67 5.66 7.34 6.32 7 7 C5.83040013 6.02433888 4.66438823 5.044375 3.5 4.0625 C2.8503125 3.51722656 2.200625 2.97195312 1.53125 2.41015625 C1.0259375 1.94480469 0.520625 1.47945312 0 1 C0 0.67 0 0.34 0 0 Z " fill="#40361B" transform="translate(548,26)"/>
<path d="M0 0 C1.65 0 3.3 0 5 0 C5.33 1.98 5.66 3.96 6 6 C3.97945196 4.35830472 1.97956942 2.69088222 0 1 C0 0.67 0 0.34 0 0 Z " fill="#281E0F" transform="translate(274,171)"/>
<path d="M0 0 C1 2 1 2 0.3125 4.5625 C-1 7 -1 7 -3.125 7.8125 C-3.74375 7.874375 -4.3625 7.93625 -5 8 C-3.62845496 5.04590299 -2.01136276 2.55991624 0 0 Z " fill="#463C1F" transform="translate(118,64)"/>
<path d="M0 0 C0.66 0 1.32 0 2 0 C1.6875 1.875 1.6875 1.875 1 4 C0.01 4.66 -0.98 5.32 -2 6 C-2 2 -2 2 0 0 Z " fill="#241D0C" transform="translate(482,44)"/>
<path d="M0 0 C0.33 0.66 0.66 1.32 1 2 C-0.4375 4.625 -0.4375 4.625 -2 7 C-2.99 6.34 -3.98 5.68 -5 5 C-3.35 3.35 -1.7 1.7 0 0 Z " fill="#D2C181" transform="translate(449,28)"/>
</svg>
